<?xml version="1.0" encoding="utf-8"?>
<!-- Generator: Adobe Illustrator 16.0.2, SVG Export Plug-In . SVG Version: 6.00 Build 0)  -->
<!DOCTYPE svg PUBLIC "-//W3C//DTD SVG 1.1//EN" "http://www.w3.org/Graphics/SVG/1.1/DTD/svg11.dtd">
<svg version="1.1" id="Layer_1" xmlns="http://www.w3.org/2000/svg" xmlns:xlink="http://www.w3.org/1999/xlink" x="0px" y="0px"
	 width="725.67px" height="725.67px" viewBox="0 0 725.67 725.67" enable-background="new 0 0 725.67 725.67" xml:space="preserve">
<path fill-rule="evenodd" clip-rule="evenodd" fill="#FEFEFE" d="M496.212,692.114c-150.405,0-300.811-0.051-451.216,0.176
	c-6.307,0.011-7.553-1.237-7.544-7.543c0.229-149.791,0.177-299.584,0.177-449.375c5.893,0.853,5.166,6.182,6.241,9.879
	c11.222,38.591,33.108,69.874,66.177,92.357c57.042,38.78,135.07,34.99,186.535-10.91c67.864-60.524,75.154-152.877,25.257-221.067
	c-31.724-43.354-74.617-65.355-127.746-64.582c-61.46,0.894-106.457,30.892-136.387,84.098c-6.354,11.294-10.858,23.339-14.29,35.83
	c-0.889,3.236-0.798,7.608-5.788,8.094c0-42.973,0.083-85.947-0.121-128.919c-0.022-4.606,1.043-5.644,5.646-5.64
	c209.34,0.133,418.68,0.167,628.02-0.101c7.399-0.011,5.505,3.869,5.505,7.583c0.024,152.248,0.021,304.494,0.021,456.742
	c-5.871-1.075-4.827-6.475-5.813-10.131c-6.343-23.509-17.541-44.577-32.941-63.148c-24.719-29.811-56.959-47.127-95.052-52.976
	c-51.237-7.867-96.471,6.432-133.851,41.664c-25.581,24.111-41.006,55.002-46.489,90.012c-8.063,51.492,6.119,96.774,41.244,134.938
	c22.027,23.929,48.757,40.812,81.358,47.159C489.187,687.037,494.643,686.231,496.212,692.114z"/>
<path fill-rule="evenodd" clip-rule="evenodd" fill="#262525" d="M496.212,692.114c-5.644-4.092-12.631-3.472-18.932-5.244
	c-15.434-4.346-30.421-9.853-43.592-18.934c-76.797-52.943-94.481-142.316-55.859-215.713
	c51.997-98.817,189.558-114.108,262.663-27.53c17.048,20.188,28.823,43.907,34.339,70.213c0.302,1.44,0.089,3.115,1.868,3.829
	c0,20.872,0,41.746,0,62.618c-5.761,39.573-26.631,69.877-56.311,95.732c-17.625,15.354-37.288,25.316-59.354,31.663
	c-7.996,2.301-16.347,1.254-24.305,3.365C523.224,692.114,509.719,692.114,496.212,692.114z"/>
<path fill-rule="evenodd" clip-rule="evenodd" fill="#262525" d="M37.629,169.071c2.936-1.216,2.189-4.205,2.729-6.347
	c6.255-24.786,18.604-46.152,33.938-66.535c49.915-66.359,164.966-84.673,235.806-9.119c66.33,70.742,55.927,166.248,2.979,227.029
	c-49.417,56.728-151.689,75.26-222.027,12.129c-24.393-21.894-41.762-49.379-49.978-81.846c-0.773-3.058-0.325-6.78-3.448-9.011
	C37.629,213.272,37.629,191.171,37.629,169.071z"/>
<path fill-rule="evenodd" clip-rule="evenodd" fill="#FEFEFE" d="M536.73,692.114c8.731-2.088,17.669-3.551,26.159-6.365
	c58.95-19.539,95.641-60.051,111.819-119.651c0.453-1.669-0.16-3.786,1.991-4.744c0,41.746-0.086,83.491,0.121,125.235
	c0.022,4.606-1.041,5.666-5.647,5.646C626.361,692.035,581.545,692.114,536.73,692.114z"/>
<path fill-rule="evenodd" clip-rule="evenodd" fill="#040404" d="M544.167,252.109c-7.505,15.552-18.697,22.291-37.003,20.57
	c-20.986-1.975-42.306-0.694-63.471-0.306c-5.853,0.108-7.01-1.674-6.978-7.183c0.236-40.811,0.135-81.622,0.117-122.43
	c-0.002-3.655-0.878-7.074,5.186-7.003c26.999,0.314,54.003,0.147,81.005,0.176c1.161,0.001,2.422,0.027,3.056,2.2
	c-2.075,2.597-5.286,1.437-7.954,1.449c-23.627,0.096-47.257,0.234-70.88-0.077c-5.534-0.074-7.372,1.173-7.202,6.998
	c0.438,15.023,0.428,30.075,0.004,45.099c-0.162,5.757,1.559,7.124,7.161,7.041c22.395-0.333,44.797-0.149,67.196-0.117
	c2.218,0.001,4.671-0.529,7.368,1.922c-3.312,2.525-6.367,1.763-9.125,1.771c-21.786,0.063-43.574,0.218-65.356-0.093
	c-5.456-0.078-7.393,1.043-7.253,6.948c0.421,17.788,0.316,35.593,0.048,53.386c-0.073,4.822,1.332,6.18,6.151,6.137
	c25.467-0.229,50.936-0.187,76.402-0.016c3.768,0.025,6.231-1.013,8.441-4.09c3.56-4.957,7.59-9.574,11.423-14.336
	C543.96,250.04,544.999,250.277,544.167,252.109z"/>
<path fill-rule="evenodd" clip-rule="evenodd" fill="#0F0F0F" d="M544.167,252.109c-0.555-0.653-1.109-1.304-1.663-1.955
	c5.843-7.823,11.482-15.813,17.617-23.404c2.985-3.694,2.998-6.188,0.106-10.097c-10.518-14.212-20.564-28.773-30.845-43.282
	c4.754-2.046,5.834,2.227,7.577,4.641c8.566,11.859,17.079,23.766,25.275,35.882c2.894,4.279,4.469,4.655,7.576,0.153
	c8.307-12.034,16.997-23.807,25.639-35.609c1.7-2.322,2.873-5.471,6.798-5.91c1.229,2.719-1.075,3.881-2.082,5.295
	c-9.393,13.169-18.729,26.384-28.449,39.311c-2.716,3.61-2.457,5.91,0.209,9.277c11.749,14.834,23.242,29.872,34.995,45.052
	c-5.26,1.96-6.27-2.333-8.114-4.671c-9.684-12.266-19.354-24.552-28.638-37.12c-3.424-4.637-5.153-4.34-8.385,0.173
	C556.282,237.53,550.077,244.714,544.167,252.109z"/>
<path fill-rule="evenodd" clip-rule="evenodd" fill="#66CF01" d="M471.519,636.44c6.578-2.985,11.405-4.928,15.989-7.334
	c3.607-1.895,6.119,0.19,8.259,2.095c14.337,12.763,27.462,10.996,43.118,0.474c22.094-14.85,45.892-27.188,69.182-40.209
	c5.08-2.84,6.536-6.183,6.499-11.704c-0.223-32.834-0.305-65.674,0.055-98.506c0.072-6.568-2.416-9.901-7.842-12.905
	c-17.976-9.952-36.085-19.76-53.368-30.834c-10.008-6.411-19.966-12.898-30.12-19.097c-4.091-2.496-7.541-3.041-11.813-0.311
	c-28.877,18.452-58.351,35.92-88.26,52.648c-3.508,1.962-4.178,4.797-4.171,8.43c0.066,34.063,0.077,68.127-0.013,102.19
	c-0.009,3.739,0.986,6.384,4.427,8.275c8.327,4.581,16.272,9.921,24.82,14.016c12.083,5.788,20.699,0.117,20.731-13.17
	c0.08-32.836,0.009-65.674,0.042-98.51c0.009-9.5,5.945-13.449,14.826-10.175c3.039,1.121,3.107,3.436,3.104,5.92
	c-0.061,37.132,0.381,74.273-0.438,111.389c-0.377,17.086-16.564,27.791-34.391,23.77c-16.462-3.716-30.211-13.294-43.644-22.939
	c-6.853-4.92-7.396-13.248-7.439-20.945c-0.186-33.144-0.149-66.287-0.041-99.431c0.032-9.789,3.417-18.114,12.465-23.084
	c31.131-17.104,60.128-37.766,91.42-54.627c8.09-4.359,15.081-4.981,23.313-0.534c32.078,17.327,61.966,38.287,93.744,56.099
	c7.476,4.188,10.124,11.28,10.142,19.396c0.077,35.599,0.076,71.197,0.001,106.796c-0.02,9.332-4.086,16.282-12.433,20.988
	c-32.588,18.372-65.094,36.892-97.532,55.524c-2.806,1.612-5.502,3.549-8.423,1.828C500.075,653.917,486.589,645.592,471.519,636.44
	z"/>
<path fill-rule="evenodd" clip-rule="evenodd" fill="#67CF01" d="M543.803,478.686c8.036-0.543,15.867,0.479,23.534,3.028
	c11.447,3.808,18.562,11.504,21.422,23.165c0.843,3.432,3.209,8.218-1.854,9.295c-4.844,1.029-11.172,3.529-14.938-2.687
	c-9.551-15.77-29.352-21.701-46.37-13.743c-4.615,2.158-7.288,5.56-7.154,10.747c0.14,5.419,4.246,7.386,8.507,8.221
	c13.814,2.705,27.814,4.53,41.546,7.581c18.07,4.013,24.752,11.266,25.198,25.535c0.507,16.25-6.989,26.78-23.506,31.89
	c-17.18,5.313-34.588,4.92-51.587-0.59c-12.575-4.073-20.926-12.646-22.32-26.465c-0.443-4.383-0.137-8.993,5.885-9.439
	c5.153-0.381,10.956-1.283,12.154,6.085c1.799,11.06,9.215,14.857,19.295,16.28c10.17,1.436,20.17,1.423,30.079-1.233
	c6.096-1.635,10.468-4.903,10.415-12.106c-0.054-7.302-3.778-11.023-10.641-12.757c-15.738-3.98-32.424-2.684-47.768-8.81
	c-16.12-6.435-21.766-24.225-12.133-38.785c6.904-10.436,17.753-13.526,29.211-15.133
	C536.387,478.259,540.125,478.686,543.803,478.686z"/>
<path fill-rule="evenodd" clip-rule="evenodd" fill="#57A52E" d="M190.465,303.846c-11.057-5.889-23.085-10.298-31.241-20.588
	c-1.878-7.453-8.742-11.403-12.403-17.775c-7.479-13.018-12.857-27.14-13.701-41.51c-1.205-20.509,1.231-41.203,8.272-60.978
	c10.628-29.849,24.493-57.979,43.455-83.472c1.647-2.214,3.236-4.482,5.374-6.273c5.631-4.723,10.257-4.349,14.845,1.59
	c6.928,8.967,13.664,18.205,19.16,28.028c13.916,24.875,27.284,50.152,33.132,78.433c4.995,24.147,5.244,48.15-4.369,71.492
	c-7.008,17.016-18.233,30.386-34.196,39.62c-8.817,5.101-10.536,3.636-12.439-6.036c-3.738-18.993-3.926-38.081-3.355-57.26
	c0.133-4.475-1.234-8.414-3.567-12.131c-3.032-7.644-2.918-15.694-2.347-23.595c1.195-16.516,1.076-32.981,0.335-41.713
	c1.673,44.235-2.517,96.13-2.766,148.084c-0.226,1.113-0.653,2.142-1.254,3.103C192.645,303.859,191.666,304.184,190.465,303.846z"
	/>
<path fill-rule="evenodd" clip-rule="evenodd" fill="#56A32E" d="M201.41,218.801c7.695,4.298,5.242,12.854,4.301,17.753
	c-3.534,18.412,2.679,35.789,3.259,53.654c0.16,4.932,3.193,3.462,5.687,2.092c16.67-9.167,28.7-22.572,36.311-39.998
	c3.562-8.156,5.656-16.735,7.724-25.343c0.595-2.479,1.011-4.755-0.395-7.054c-1.512-2.473-2.134-5.377-1.416-7.995
	c5.723-20.854-4.838-38.744-10.277-57.544c-4.886-16.887-14.889-31.464-22.172-47.272c-5.285-11.471-13.815-21.5-21.303-31.881
	c-3.753-5.204-7.985-4.182-12.192,0.313c-9.007,9.626-17.202,20.288-22.506,31.944c-9.93,21.822-22.566,42.599-27.866,66.449
	c-1.774,7.982-2.522,16.322-6.532,23.761c-1.492,2.768,0.684,5.357,1.458,7.902c0.994,3.265,2.059,6.475,1.497,9.889
	c-3.054,18.541,6.574,46.25,20.408,59.815c1.76,1.725,8.422,3.765,1.829,7.973c-18.557-15.712-25.741-36.839-27.476-60.051
	c-3.531-47.251,14.443-88.045,39.019-126.797c6.403-10.097,12.974-19.985,20.774-29.079c3.431-3.998,5.988-5.542,9.859-0.482
	c35.203,45.998,64.274,94.477,60.738,155.455c-2.066,35.638-19.188,62.148-51.452,77.918c-6.089,2.975-8.083,6.243-7.627,12.507
	c0.444,6.104-0.479,12.334,0.234,18.387c1.035,8.794-1.948,12.647-10.934,11.068c-1.517-12.904-1.542-25.809,0.012-38.713
	l-0.077,0.076c5.271-2.788,6.535-7.374,6.5-13.002c-0.123-19.85-0.119-39.701-0.001-59.551
	C198.819,226.795,198.15,222.347,201.41,218.801z"/>
<path fill-rule="evenodd" clip-rule="evenodd" fill="#292A27" d="M192.371,303.47c-0.004,12.905-0.008,25.809-0.012,38.713
	c-4.036-8.613-0.992-17.726-1.824-26.571c-0.366-3.892-0.067-7.845-0.07-11.77C191.1,303.72,191.736,303.596,192.371,303.47z"/>
<path fill-rule="evenodd" clip-rule="evenodd" fill="#292A27" d="M201.41,218.801c0.139,25.735,0.096,51.474,0.529,77.204
	c0.129,7.624-2.198,10.424-9.644,7.542c-0.838-55.318,3.792-110.484,4.37-165.771C201.801,164.6,197.872,191.911,201.41,218.801z"/>
<g>
	<ellipse fill="#00D8FF" cx="188.947" cy="527.01" rx="27.064" ry="25.474"/>
	<g>
		<path fill="#00D8FF" d="M188.947,585.365c-38.009,0-71.219-4.212-96.073-12.229c-16.119-5.176-29.813-12.077-39.571-19.942
			c-10.352-8.321-15.851-17.405-15.851-26.184c0-16.847,19.624-33.339,52.565-44.096c26.956-8.829,62.108-13.752,98.876-13.752
			c36.122,0,70.788,4.77,97.583,13.498c15.688,5.074,28.896,11.671,38.277,18.979c10.189,8.017,15.582,16.796,15.582,25.371
			c0,17.507-21.943,35.216-57.31,46.228C258.01,581.052,224.584,585.365,188.947,585.365z M188.947,481.341
			c-34.881,0-69.386,4.771-94.617,13.041c-30.299,9.946-43.885,23.545-43.885,32.628c0,9.438,14.61,24.307,46.635,34.607
			c23.505,7.561,55.314,11.569,91.867,11.569c34.289,0,66.259-4.06,90.035-11.519c33.264-10.403,48.467-25.271,48.467-34.658
			c0-4.82-3.881-10.504-10.944-16.035c-8.14-6.394-20.001-12.229-34.181-16.847C256.823,485.908,223.667,481.341,188.947,481.341z"
			/>
	</g>
	<g>
		<path fill="#00D8FF" d="M127.541,653.97c-5.499,0-10.352-1.116-14.45-3.349c-15.473-8.424-20.864-32.679-14.34-64.901
			c5.337-26.437,18.384-57.492,36.769-87.481c18.061-29.431,39.734-55.31,61.137-72.816c12.508-10.251,25.177-17.761,36.606-21.719
			c12.455-4.313,23.236-4.313,31.107-0.051c16.12,8.729,21.458,35.521,13.91,69.823c-5.337,24.356-18.061,53.737-35.852,82.813
			c-18.978,30.954-39.464,55.92-59.251,72.209c-12.831,10.555-26.04,18.268-38.115,22.275
			C138.755,652.904,132.823,653.97,127.541,653.97z M141.073,501.282l5.607,3.046c-17.414,28.416-30.299,58.913-35.259,83.676
			c-5.984,29.684-0.215,47.547,8.087,52.063c2.048,1.116,4.745,1.725,8.033,1.725c10.728,0,27.604-6.394,47.12-22.428
			c18.708-15.375,38.278-39.327,56.554-69.113c17.144-27.959,29.329-56.071,34.397-79.159c7.063-32.323,0.97-52.113-7.71-56.833
			c-4.42-2.385-11.591-2.08-20.217,0.913c-9.974,3.451-21.242,10.2-32.563,19.486c-20.325,16.644-41.082,41.406-58.442,69.721
			L141.073,501.282z"/>
	</g>
	<g>
		<path fill="#00D8FF" d="M250.354,654.122c-14.665,0-33.265-8.322-52.673-24.052c-21.673-17.558-43.724-43.691-62.162-73.68l0,0
			c-18.116-29.432-31.054-60.029-36.5-86.264c-3.181-15.325-3.774-29.381-1.725-40.697c2.264-12.33,7.602-21.108,15.527-25.422
			c16.066-8.778,43.399,0.254,71.219,23.545c19.732,16.492,40.434,41.559,58.28,70.584c19.031,30.954,31.808,60.131,36.875,84.387
			c3.289,15.73,3.828,30.344,1.51,42.218c-2.479,12.635-8.086,21.617-16.174,26.031
			C260.489,653.006,255.691,654.122,250.354,654.122z M146.733,550.301c17.468,28.416,39.141,54.144,59.412,70.534
			c24.315,19.688,43.616,23.951,51.972,19.383c8.68-4.719,15.042-24.052,8.464-55.31c-4.851-22.937-17.089-50.845-35.42-80.631
			c-17.198-27.96-36.985-51.962-55.692-67.591c-26.202-21.922-47.443-26.843-56.123-22.124c-4.421,2.385-7.71,8.424-9.274,16.948
			c-1.779,9.845-1.24,22.429,1.672,36.281C116.92,492.708,129.32,521.986,146.733,550.301L146.733,550.301z"/>
	</g>
</g>
</svg>
